PathFileType	4	(X/Y/Z)	OpenSim_Sub08_CSStiffKnee_Gyro.trc
DataRate	CameraRate	NumFrames	NumMarkers	Units	OrigDataRate	OrigDataStartFrame	OrigNumFrames
100	100	37	8	m	100	2642	5282
Frame#	Time	torso_imu_offset_imu	pelvis_imu_offset_imu	tibia_r_imu_offset_imu	femur_r_imu_offset_imu	tibia_l_imu_offset_imu	femur_l_imu_offset_imu	toes_r_imu_offset_imu	toes_l_imu_offset_imu
				X1	Y1	Z1	X2	Y2	Z2	X3	Y3	Z3	X4	Y4	Z4	X5	Y5	Z5	X6	Y6	Z6	X7	Y7	Z7	X8		Y8	Z8	

2642	26.41000000	-0.06678568	0.41377212	-0.16155698	-0.68279353	-0.47835948	-0.26656154	-1.12009475	0.10774394	-1.12213403	-1.07841390	0.34738352	-0.90672007	-0.47948121	-0.47490059	1.19983804	-0.21141587	0.14095981	-0.16986303	-0.28183874	-0.35258302	-0.32785852	-0.10170141	-2.31064315	-0.25748582
2643	26.42000000	-0.08888826	0.49081711	-0.16959106	-0.67972521	-0.44096928	-0.24273709	-1.21074881	0.08157021	-1.26279497	-1.00963124	0.37481725	-0.84507724	-0.48544529	-0.66492976	1.78349719	0.20471830	-0.03424201	-0.44378447	-0.33363831	-0.56155768	-0.30455400	0.46827924	-3.01113889	1.09949463
2644	26.43000000	-0.12620140	0.53783832	-0.16920526	-0.70587149	-0.36819554	-0.23603847	-1.30835175	0.07104661	-1.42874086	-0.95094389	0.41964925	-0.70101660	-0.65148362	-0.97943937	2.32418219	0.28551292	-0.36359689	-0.62873134	-0.32271401	-0.83237813	-0.23850122	-0.30095904	-2.46303990	1.52532270
2645	26.44000000	-0.16891914	0.56873761	-0.16124301	-0.76981408	-0.25508867	-0.24090416	-1.40499657	0.11778635	-1.62566672	-0.92833331	0.45970350	-0.58257337	-0.51605637	-1.30903500	2.62108741	0.11231679	-0.78818093	-0.54189766	-0.35638704	-1.11649667	-0.11193163	0.71213668	-2.92164563	0.68359071
2646	26.45000000	-0.21469777	0.58001811	-0.11755233	-0.81489795	-0.14972513	-0.25609816	-1.23702970	0.09895913	-1.85714115	-0.95486136	0.51244174	-0.50481241	0.50787696	-1.36820124	1.49273590	-0.16478269	-1.02540602	-0.22232039	-0.39356771	-1.52171606	0.03554385	0.24309368	-3.45838109	0.87966222
2647	26.46000000	-0.26838851	0.58730596	-0.06215531	-0.71953576	-0.03495942	-0.26188770	-1.17572748	0.07193189	-2.01177155	-0.87050587	0.58988153	-0.36865124	1.17414928	-1.27978552	0.41849610	-0.17311964	-0.84493823	0.19687834	-0.40836523	-2.00483447	0.17922197	-1.49405254	-5.01362114	0.70138268
2648	26.47000000	-0.30327356	0.60546443	-0.04187208	-0.56625778	0.12066957	-0.28024452	-1.40003162	0.01354508	-2.11133652	-0.62274142	0.68695363	-0.22273225	-0.72317720	-0.83607991	0.96229808	0.09911389	-0.63837095	0.54805465	-0.43319411	-2.66644505	0.18955176	-0.59642141	-4.16992648	0.24559020
2649	26.48000000	-0.30993899	0.60217695	-0.03188927	-0.42499525	0.21302789	-0.32181084	-1.55485891	-0.00587283	-2.21467414	-0.34107894	0.80499907	-0.10693601	-3.22821112	-0.45587533	1.75909560	0.17448133	-0.36586899	0.63081657	-0.38435182	-3.39062770	0.14151125	-0.38474669	-3.09486332	0.46974115
2650	26.49000000	-0.29298823	0.57417326	0.00947915	-0.14387496	0.08624585	-0.38473862	-1.61336050	0.07964048	-2.26966119	-0.24031433	0.87852798	0.03852952	-4.33764131	-0.45756076	2.08497728	-0.12442059	0.04710253	0.32342431	-0.31942887	-4.00078852	0.14700723	0.79455891	-2.63865998	0.33803432
2651	26.50000000	-0.25301720	0.56536250	0.02814556	0.18538808	-0.27009055	-0.46904379	-1.56994211	0.03743705	-2.31127659	-0.37650235	0.91067903	0.20543867	-3.86475825	-0.34475176	2.13508954	-0.71644434	-0.07264239	-0.47788967	-0.15266685	-4.50749971	0.04832671	0.33696017	-2.40406226	-0.10710618
2652	26.51000000	-0.22871547	0.57426960	-0.01917712	0.32879440	-0.62865751	-0.49215159	-1.33915769	0.00126995	-2.31599007	-0.49589750	0.96736029	0.35668318	-2.59570731	-0.42324758	1.87848145	-1.61294732	-0.79919896	-1.17979062	0.09640812	-4.82277350	-0.02119633	-0.67911808	-2.16852534	-0.20890773
2653	26.52000000	-0.22760379	0.56418995	-0.07286346	0.23838044	-0.81791228	-0.40530234	-0.64987612	0.06659664	-2.26264151	-0.47491550	1.01130944	0.49212412	-1.58372713	-0.80386681	1.54017015	-2.49883802	-1.21605526	-1.00019235	-0.04975952	-4.89393443	-0.23528441	0.75532053	-2.14138549	-0.55245889
2654	26.53000000	-0.22226573	0.54433708	-0.04002542	-0.03528228	-0.79530085	-0.28060755	0.50432255	0.03948385	-2.26498750	-0.40829298	0.96130082	0.61228685	-0.58823428	-1.04445194	1.40064071	-2.47620721	-1.04777975	-0.10284534	0.11962209	-4.74963229	-0.74913728	0.38807521	-1.36154056	-0.37357622
2655	26.54000000	-0.23378166	0.50942311	0.03188352	-0.33989643	-0.57514130	-0.19696096	1.33999531	-0.04751042	-2.35739473	-0.32610332	0.82036479	0.69394573	0.09456176	-1.06532804	1.49243750	-1.22786813	-0.83011010	0.82269109	0.20890418	-4.25215703	-1.19196995	-1.47956548	-0.71392490	0.12683102
2656	26.55000000	-0.28904836	0.44842661	0.07823372	-0.52921163	-0.30125920	-0.17804923	1.82922695	-0.06911156	-2.51026022	-0.20922272	0.63187389	0.77193848	0.52060174	-1.03349703	1.46053868	0.38097922	-0.80130960	1.19268223	0.10621832	-3.58723645	-1.58962016	-0.19763954	-0.83527198	0.04114027
2657	26.56000000	-0.34163900	0.38106007	0.13768833	-0.60908055	-0.06431178	-0.21037662	2.20711877	-0.06985509	-2.62151439	-0.17109179	0.42204277	0.88988272	0.77086077	-0.84042123	1.14672930	1.28536625	-0.89155202	1.15031338	-1.36760970	-2.46199418	-1.72793129	-0.05495913	-0.48718742	0.15530254
2658	26.57000000	-0.36612688	0.31124160	0.16295107	-0.61555156	0.13432070	-0.25807517	2.11266209	-0.13401832	-2.55198522	-0.22752749	0.18685939	0.98285025	0.52875081	-0.66173544	0.95889639	1.23955365	-0.97915434	0.92581389	-2.40713114	-1.31493770	-1.79987281	-0.66540934	-0.36356744	0.21607146
2659	26.58000000	-0.35765085	0.24716451	0.12931489	-0.56828623	0.23611210	-0.26861420	1.10384810	0.06133774	-2.13669137	-0.25637762	-0.03665157	0.99112989	0.00555686	-0.54967300	0.87532166	0.71530677	-1.03093988	0.61772846	0.26666476	0.42439710	-2.20937648	-0.14792977	-0.30576017	0.12133626
2660	26.59000000	-0.33610183	0.20674822	0.09888189	-0.46308590	0.19088751	-0.22615778	-0.55689914	0.48593224	-1.19635705	-0.18686514	-0.12545562	0.91022755	-0.46517676	-0.45376130	0.67842673	0.19682652	-1.06539753	0.46700216	2.03213946	1.65921953	-2.43576440	-0.18770869	-0.28580912	0.03025425
2661	26.60000000	-0.32656457	0.18611973	0.08620369	-0.30971093	0.00226811	-0.13257132	-1.95354444	0.59734731	0.11542706	-0.04939968	-0.10394784	0.73122192	-0.81427621	-0.45045019	0.57901618	-0.17760498	-0.93547836	0.53564576	1.14988040	1.65363777	-2.23912005	-0.00104722	-0.26081298	-0.06345553
2662	26.61000000	-0.31909527	0.17626085	0.06536473	-0.13810677	-0.19832693	0.01838291	-2.35934336	0.61017963	1.20182292	0.09970736	-0.12341239	0.46630978	-0.77221940	-0.46885096	0.66421742	-0.41533871	-0.66388389	0.73788230	0.51555482	2.33739277	-1.90179952	0.01806057	-0.23540798	-0.10195739
2663	26.62000000	-0.31993698	0.17484024	0.03770053	0.02410350	-0.30400862	0.19912816	-2.10010225	0.68636316	1.75193014	0.27594248	-0.17829772	0.18029559	-0.25301657	-0.46806798	0.67897525	-0.39795741	-0.46405308	0.86275267	0.35122407	3.07386316	-1.64158363	0.02169220	-0.24784412	-0.11229128
2664	26.63000000	-0.32951495	0.18058257	0.03110941	0.13277314	-0.33640120	0.36533508	-1.94444713	0.56811010	2.02648128	0.47436386	-0.20030346	-0.06163953	0.27902319	-0.44620974	0.54187745	-0.13655213	-0.41092692	0.85863327	0.10494102	3.34803483	-1.52195046	0.03082288	-0.22096593	-0.08537774
2665	26.64000000	-0.35134786	0.19010198	0.03997397	0.15489982	-0.33387695	0.47546929	-1.37110199	0.37271832	2.31347185	0.60755022	-0.16963305	-0.22664462	0.55708743	-0.46673354	0.48075695	0.25368605	-0.47559837	0.82319050	-0.17490141	3.38423550	-1.37454766	-0.06906060	-0.21902055	-0.02648201
2666	26.65000000	-0.36947072	0.18749687	0.04645072	0.10205684	-0.31255425	0.50757714	-0.33106504	0.19509864	2.66744756	0.62827989	-0.06193146	-0.29223713	0.58741520	-0.47186383	0.50139776	0.67818092	-0.54779636	0.79917759	-0.57313163	3.40854104	-1.03317290	-0.02356585	-0.21795125	0.00990740
2667	26.66000000	-0.37473888	0.16506255	0.05564614	0.03549758	-0.26204841	0.48771990	0.36980354	0.02475513	2.88057341	0.62388522	0.10504313	-0.25993223	0.50110265	-0.44220674	0.51177677	1.05654777	-0.55084696	0.80589251	-0.99379046	3.21856222	-0.51693798	-0.01320598	-0.17981119	0.02320428
2668	26.67000000	-0.36945652	0.13063269	0.07906233	0.01088836	-0.17535261	0.45387362	0.52326800	-0.06584027	2.83418191	0.62981335	0.26021095	-0.15142520	0.43078597	-0.41705007	0.48232454	1.32159550	-0.47967882	0.84872588	-1.31876580	2.66402309	0.09659058	-0.01124409	-0.21489225	0.02815536
2669	26.68000000	-0.36122655	0.08841682	0.12078830	0.05152337	-0.07304466	0.41831360	0.25946672	-0.02584956	2.62287705	0.58889115	0.38006819	-0.00286272	0.44055623	-0.42107161	0.43857732	1.49867073	-0.37892666	0.81268611	-1.48594173	2.02092406	0.70624991	-0.04951040	-0.23635695	0.04336264
2670	26.69000000	-0.35284165	0.03410015	0.12279936	0.11007030	0.01355776	0.40044798	-0.17813886	0.08837075	2.43053750	0.50907457	0.45841429	0.17458294	0.49771498	-0.41651198	0.47411756	1.57908383	-0.25077468	0.73088382	-1.42432428	1.51516107	1.21347228	-0.06611095	-0.19892584	0.08006045
2671	26.70000000	-0.34419733	-0.03582256	0.09501427	0.15386769	0.07432036	0.40177698	-0.43068441	0.18050443	2.37037595	0.43088159	0.44848226	0.37051882	0.50016585	-0.38275148	0.50715455	1.58084995	-0.15123687	0.61702798	-1.32583766	1.25315393	1.60355636	-0.08307119	-0.17978382	0.10479131
2672	26.71000000	-0.33509477	-0.11080653	0.09469032	0.17896258	0.10550716	0.40429648	-0.47595114	0.20279477	2.32333333	0.39595309	0.37433041	0.56665691	0.45409800	-0.38451660	0.49442710	1.47746051	-0.09886932	0.49395713	-1.21066310	1.19578597	1.80622541	-0.08681017	-0.20310415	0.10060006
2673	26.72000000	-0.31633646	-0.17405958	0.09829945	0.19315039	0.10251801	0.40433673	-0.48615516	0.16822488	2.15767972	0.38800569	0.26486185	0.73183193	0.40917053	-0.38765274	0.50692053	1.25652301	-0.05169109	0.44295014	-0.93324583	1.17592820	1.69816025	-0.06288800	-0.18875585	0.11379883
2674	26.73000000	-0.29850813	-0.23620342	0.09567065	0.20401013	0.07517181	0.40301521	-0.36970808	0.13285348	1.90305654	0.32761490	0.14736020	0.86361098	0.37797563	-0.35472606	0.50811414	1.03478582	-0.04715919	0.40999120	-0.63920372	1.22847246	1.33307895	-0.06011934	-0.18472484	0.13469737
2675	26.74000000	-0.29426028	-0.29540124	0.09834784	0.22273547	0.03106674	0.39290529	-0.08321827	0.12532582	1.67651661	0.23498320	0.05692786	0.99877626	0.39302406	-0.32485489	0.56747440	0.89186782	-0.10301528	0.39864107	-0.55928440	1.36255094	0.86310581	-0.05075313	-0.18068668	0.14158820
2676	26.75000000	-0.28533439	-0.35397025	0.10636811	0.26765223	-0.01898064	0.36538039	0.20920142	0.13465398	1.53949116	0.15741753	-0.01364251	1.13389560	0.41668600	-0.28747887	0.57082614	0.80049640	-0.18417393	0.37518178	-0.60369291	1.49024891	0.40099943	-0.04617162	-0.16931507	0.14955272
2677	26.76000000	-0.26611729	-0.39606152	0.10149933	0.34977761	-0.05335768	0.31371477	0.30504046	0.13368415	1.45373802	0.15489630	-0.05836019	1.25322485	0.38867221	-0.28065451	0.52437468	0.69225308	-0.25369101	0.31843792	-0.66003757	1.57974243	0.02863810	-0.03033750	-0.14364643	0.18152329
2678	26.77000000	-0.24070456	-0.42222180	0.08651071	0.45233909	-0.08089115	0.25085892	0.17362163	0.11898630	1.40112951	0.24433166	-0.09240047	1.32825351	0.41014455	-0.33210060	0.54182727	0.56080292	-0.27933878	0.27784828	-0.59643181	1.62914789	-0.21451671	-0.07072874	-0.15027872	0.18859136
